HIERARCHY
ROOT Pelvis
{
	OFFSET 0.000000 0.000000 0.000000
	CHANNELS 6 Xposition Yposition Zposition Xrotation Yrotation Zrotation
	JOINT LeftUpLeg_virtual
	{
		OFFSET 0.000000 0.000000 0.000000
		CHANNELS 3 Xrotation Yrotation Zrotation
		JOINT LeftUpLeg
		{
			OFFSET 18.735201 -5.666702 -4.541200
			CHANNELS 3 Xrotation Yrotation Zrotation
			JOINT LeftLeg
			{
				OFFSET -0.021200 -31.938179 0.493100
				CHANNELS 3 Xrotation Yrotation Zrotation
				JOINT LeftFoot
				{
					OFFSET 0.021200 -31.938179 -4.336299
					CHANNELS 3 Xrotation Yrotation Zrotation
					JOINT LeftToeBase
					{
						OFFSET 0.943001 -26.722000 15.023500
						CHANNELS 3 Xrotation Yrotation Zrotation
						End Site
						{
							OFFSET 0 0 0
						}
					}
				}
			}
		}
	}
	JOINT RightUpLeg_virtual
	{
		OFFSET 0.000000 0.000000 0.000000
		CHANNELS 3 Xrotation Yrotation Zrotation
		JOINT RightUpLeg
		{
			OFFSET -18.735201 -5.666702 -4.541200
			CHANNELS 3 Xrotation Yrotation Zrotation
			JOINT RightLeg
			{
				OFFSET 0.018946 -31.938133 0.493100
				CHANNELS 3 Xrotation Yrotation Zrotation
				JOINT RightFoot
				{
					OFFSET -0.018946 -31.938126 -4.336299
					CHANNELS 3 Xrotation Yrotation Zrotation
					JOINT RightToeBase
					{
						OFFSET -0.943001 -26.722004 15.023500
						CHANNELS 3 Xrotation Yrotation Zrotation
						End Site
						{
							OFFSET 0 0 0
						}
					}
				}
			}
		}
	}
	JOINT Hips_virtual
	{
		OFFSET 0.000000 0.000000 0.000000
		CHANNELS 3 Xrotation Yrotation Zrotation
		JOINT Hips
		{
			OFFSET -0.000000 -0.000000 -0.000000
			CHANNELS 3 Xrotation Yrotation Zrotation
			JOINT Spine
			{
				OFFSET 0.000000 10.199997 -0.299500
				CHANNELS 3 Xrotation Yrotation Zrotation
				JOINT Spine1
				{
					OFFSET 0.000000 11.900002 -1.516600
					CHANNELS 3 Xrotation Yrotation Zrotation
					JOINT Spine2
					{
						OFFSET 0.000000 13.600006 -2.842500
						CHANNELS 3 Xrotation Yrotation Zrotation
						JOINT Neck_virtual
						{
							OFFSET 0.000000 0.000000 0.000000
							CHANNELS 3 Xrotation Yrotation Zrotation
							JOINT Neck
							{
								OFFSET 0.000000 9.624100 -2.890100
								CHANNELS 3 Xrotation Yrotation Zrotation
								JOINT Head
								{
									OFFSET 0.000000 14.068802 -1.351900
									CHANNELS 3 Xrotation Yrotation Zrotation
									End Site
									{
										OFFSET 0 0 0
									}
								}
							}
						}
						JOINT LeftShoulder_virtual
						{
							OFFSET 0.000000 0.000000 0.000000
							CHANNELS 3 Xrotation Yrotation Zrotation
							JOINT LeftShoulder
							{
								OFFSET 15.263000 10.923401 -0.547700
								CHANNELS 3 Xrotation Yrotation Zrotation
								JOINT LeftArm
								{
									OFFSET 25.438599 -2.830597 -13.032500
									CHANNELS 3 Xrotation Yrotation Zrotation
									JOINT LeftForeArm
									{
										OFFSET 29.960503 0.000000 0.000000
										CHANNELS 3 Xrotation Yrotation Zrotation
										JOINT LeftHand
										{
											OFFSET 27.849251 0.000000 0.000000
											CHANNELS 3 Xrotation Yrotation Zrotation
											End Site
											{
												OFFSET 0 0 0
											}
										}
									}
								}
							}
						}
						JOINT RightShoulder_virtual
						{
							OFFSET 0.000000 0.000000 0.000000
							CHANNELS 3 Xrotation Yrotation Zrotation
							JOINT RightShoulder
							{
								OFFSET -15.263000 10.923401 -0.547700
								CHANNELS 3 Xrotation Yrotation Zrotation
								JOINT RightArm
								{
									OFFSET -25.438599 -2.830597 -13.032500
									CHANNELS 3 Xrotation Yrotation Zrotation
									JOINT RightForeArm
									{
										OFFSET -29.960503 0.000000 0.000000
										CHANNELS 3 Xrotation Yrotation Zrotation
										JOINT RightHand
										{
											OFFSET -27.849251 0.000000 0.000000
											CHANNELS 3 Xrotation Yrotation Zrotation
											End Site
											{
												OFFSET 0 0 0
											}
										}
									}
								}
							}
						}
					}
				}
			}
		}
	}
}
MOTION
Frames: 13
Frame Time: 0.03333333
10.921334 90.973495 17.863031 0.000000 0.000000 0.000000 -0.751150 3.609857 -5.569968 0.374639 9.003494 7.302526 24.951950 -7.147189 0.693749 -23.026437 6.260865 -1.892489 0.000000 0.000000 0.000000 -1.228316 5.210666 -6.341480 -37.698410 -6.202779 -3.284190 30.773827 -0.948814 0.521580 5.152206 3.072710 7.850403 0.000000 0.000000 0.000000 -1.484698 4.065141 -5.174364 0.854090 0.331597 -1.576591 10.923952 -0.724443 3.759111 -0.113190 -1.877701 1.123093 0.000000 0.000000 0.000000 -3.154862 -1.761166 0.317282 -0.851478 -0.432602 1.231091 0.000000 0.000000 0.000000 -2.884168 -1.560692 0.186895 1.799502 -2.354334 -2.500028 -4.587877 -11.901296 -72.454660 10.305241 -21.953500 -3.959514 0.000000 0.000000 0.000000 -3.234297 -1.626169 0.475226 2.706319 3.226666 4.369129 1.350258 4.378408 73.550694 10.804471 16.886055 1.082646 0.000000 0.000000 0.000000 
10.986824 90.795609 19.759428 0.000000 0.000000 0.000000 -0.214572 2.706517 -6.122193 1.630450 10.536091 8.572042 23.641865 -7.008494 0.424944 -24.031698 7.405170 -1.157470 0.000000 0.000000 0.000000 -0.510972 4.020668 -7.055385 -37.347693 -7.242593 -3.077143 24.485253 0.569117 1.314239 2.690740 4.046471 9.468878 0.000000 0.000000 0.000000 -0.807647 3.225008 -5.678570 0.879943 0.470912 -1.581788 10.889837 -0.831301 3.814621 -0.119390 -1.976778 1.311528 0.000000 0.000000 0.000000 -3.151331 -1.850409 0.425718 -0.844568 -0.399238 1.268078 0.000000 0.000000 0.000000 -2.901906 -1.664351 0.347664 1.688506 -2.053209 -2.914742 -4.546867 -12.764817 -71.553130 10.315360 -22.724620 -4.502376 0.000000 0.000000 0.000000 -3.324424 -1.719543 0.558791 2.654666 3.177147 4.676890 2.174928 4.086159 73.344463 10.698052 16.972918 1.838114 0.000000 0.000000 0.000000 
10.901082 90.532394 21.644409 0.000000 0.000000 0.000000 0.160176 1.961641 -6.397123 2.844782 10.901656 9.845307 22.600710 -7.047055 0.537052 -25.284129 8.289095 -0.052662 0.000000 0.000000 0.000000 -0.062850 3.151897 -7.428644 -37.390532 -7.991267 -2.870653 19.432330 1.843803 1.869134 2.384791 4.671402 10.086233 0.000000 0.000000 0.000000 -0.343504 2.739826 -6.008829 0.835947 0.499573 -1.524472 11.150505 -1.051085 3.590130 -0.183492 -2.152538 1.614016 0.000000 0.000000 0.000000 -3.243197 -2.016434 0.655510 -0.822214 -0.366045 1.256641 0.000000 0.000000 0.000000 -2.994439 -1.857849 0.635339 1.565080 -1.821611 -3.574066 -4.287956 -13.739165 -70.732346 10.360320 -23.522391 -5.049590 0.000000 0.000000 0.000000 -3.460581 -1.883934 0.772100 2.601638 3.278826 4.925311 2.902733 3.978376 73.171700 10.511635 17.409005 2.431134 0.000000 0.000000 0.000000 
10.628645 90.146027 23.612469 0.000000 0.000000 0.000000 0.552445 1.398137 -6.310717 4.598875 9.685847 10.798870 21.335928 -7.646387 1.119073 -26.364619 8.577787 0.619832 0.000000 0.000000 0.000000 0.185889 2.642828 -7.393951 -37.583386 -8.203144 -2.479604 15.736643 2.565679 2.009478 1.621974 4.294183 9.099226 0.000000 0.000000 0.000000 -0.060719 2.718210 -6.126090 0.640692 0.499738 -1.345449 11.630813 -1.360800 3.183952 -0.307905 -2.386617 1.946976 0.000000 0.000000 0.000000 -3.468367 -2.241188 0.930694 -0.793404 -0.341871 1.209072 0.000000 0.000000 0.000000 -3.149834 -2.135834 0.973924 1.443448 -1.675516 -4.389782 -3.953987 -14.705669 -70.108504 10.422253 -24.159069 -5.554609 0.000000 0.000000 0.000000 -3.619052 -2.100612 1.041396 2.551829 3.437267 5.116756 3.495253 4.009469 73.041838 10.266877 18.218256 2.891033 0.000000 0.000000 0.000000 
10.202114 89.699562 25.601128 0.000000 0.000000 0.000000 0.821639 1.312379 -5.928806 6.859859 8.116727 11.402658 19.545695 -8.528139 1.663632 -26.339856 8.279630 0.127112 0.000000 0.000000 0.000000 0.106914 2.571563 -6.928001 -37.950683 -8.289504 -2.301253 14.042189 2.502177 1.899885 -0.571739 2.899056 6.748800 0.000000 0.000000 0.000000 -0.010591 3.117950 -5.988091 0.491191 0.438819 -1.252072 12.233347 -1.731085 2.740572 -0.456663 -2.644153 2.229202 0.000000 0.000000 0.000000 -3.832232 -2.489114 1.178351 -0.768692 -0.335272 1.144274 0.000000 0.000000 0.000000 -3.332704 -2.442398 1.275777 1.343534 -1.604730 -5.241375 -3.853386 -15.517538 -69.766305 10.484804 -24.420566 -5.974364 0.000000 0.000000 0.000000 -3.821515 -2.333077 1.281692 2.527706 3.515774 5.251599 3.797427 4.165160 73.026723 9.971991 19.135443 3.256803 0.000000 0.000000 0.000000 
9.646751 89.154015 27.468191 0.000000 0.000000 0.000000 0.918932 1.894472 -5.356085 8.689221 7.173385 11.851740 18.017209 -9.138943 1.883934 -25.101362 7.622182 -1.245510 0.000000 0.000000 0.000000 -0.323212 3.071867 -6.192077 -38.704619 -8.809733 -2.657715 14.260828 1.784063 1.859580 -2.928605 1.174207 3.967629 0.000000 0.000000 0.000000 -0.190008 3.756809 -5.599133 0.262492 0.462264 -1.212666 12.893235 -2.091483 2.393605 -0.576024 -2.868339 2.403156 0.000000 0.000000 0.000000 -4.294201 -2.705143 1.338826 -0.748052 -0.351467 1.086117 0.000000 0.000000 0.000000 -3.499553 -2.726974 1.473123 1.261659 -1.592985 -6.001940 -4.135360 -16.165239 -69.731491 10.525454 -24.206373 -6.298910 0.000000 0.000000 0.000000 -4.046198 -2.525342 1.431681 2.539433 3.444570 5.295691 3.722111 4.462335 73.163518 9.648164 19.710982 3.563194 0.000000 0.000000 0.000000 
9.006170 88.580551 29.650846 0.000000 0.000000 0.000000 0.909493 2.968990 -4.755397 9.536290 6.980717 12.226790 17.969159 -9.127753 2.003260 -23.540684 7.045624 -2.526674 0.000000 0.000000 0.000000 -0.791998 3.977937 -5.424726 -39.667276 -9.291859 -3.241915 15.552962 1.218666 2.027263 -2.675130 0.178323 2.031223 0.000000 0.000000 0.000000 -0.452039 4.613365 -5.019967 0.132510 0.370358 -1.115002 13.552928 -2.381334 2.221768 -0.620648 -3.028476 2.450792 0.000000 0.000000 0.000000 -4.791904 -2.843205 1.381965 -0.730146 -0.385287 1.053117 0.000000 0.000000 0.000000 -3.648845 -2.929700 1.532165 1.196258 -1.594926 -6.597710 -4.692373 -16.594409 -69.908598 10.580658 -23.698644 -6.509261 0.000000 0.000000 0.000000 -4.306366 -2.637607 1.471640 2.593736 3.247208 5.354777 3.302872 4.918542 73.382665 9.345285 19.739595 3.828464 0.000000 0.000000 0.000000 
8.293476 88.104935 32.252960 0.000000 0.000000 0.000000 0.796520 4.135840 -4.248325 9.805292 7.357527 12.552492 19.190728 -8.514165 2.154788 -23.094622 6.601508 -3.577304 0.000000 0.000000 0.000000 -1.318244 4.995251 -4.748380 -40.274361 -8.976370 -3.142942 17.025126 1.469695 2.157606 1.533215 0.359277 1.346795 0.000000 0.000000 0.000000 -0.787579 5.494154 -4.441596 0.113193 0.156594 -1.091905 14.170193 -2.544780 2.257912 -0.594996 -3.106311 2.371235 0.000000 0.000000 0.000000 -5.279708 -2.886494 1.300933 -0.714079 -0.423474 1.050490 0.000000 0.000000 0.000000 -3.772740 -3.026857 1.451713 1.138852 -1.559142 -6.977303 -5.280594 -16.788369 -70.154505 10.674150 -23.382577 -6.603508 0.000000 0.000000 0.000000 -4.618424 -2.653549 1.410200 2.665788 2.964192 5.512063 2.678362 5.481991 73.471204 9.052622 19.290831 4.080010 0.000000 0.000000 0.000000 
7.541704 87.848091 35.056454 0.000000 0.000000 0.000000 0.790954 4.931447 -3.964530 9.889182 7.919808 12.942594 20.400274 -7.507742 2.304864 -24.097426 6.018523 -5.203115 0.000000 0.000000 0.000000 -1.677863 6.005058 -4.281783 -40.043958 -7.784357 -1.997983 17.750016 2.323370 1.975369 7.580393 1.205211 1.015851 0.000000 0.000000 0.000000 -1.018177 6.164057 -4.103634 0.047123 -0.037468 -0.953002 14.700946 -2.537328 2.569962 -0.536001 -3.115948 2.193159 0.000000 0.000000 0.000000 -5.728656 -2.838995 1.112734 -0.686451 -0.455018 1.072098 0.000000 0.000000 0.000000 -3.892453 -3.034563 1.257305 1.086165 -1.452445 -7.178167 -5.592378 -16.743765 -70.352950 10.795619 -23.484381 -6.614129 0.000000 0.000000 0.000000 -4.947217 -2.589120 1.279567 2.728040 2.691738 5.846816 2.147350 6.107804 73.152221 8.799719 18.785687 4.332053 0.000000 0.000000 0.000000 
6.865788 87.852730 37.959385 0.000000 0.000000 0.000000 0.845943 5.254374 -4.053176 9.486369 8.719316 13.546184 21.591862 -6.054452 2.368237 -23.696768 5.512974 -7.346212 0.000000 0.000000 0.000000 -1.665219 6.729459 -4.227018 -39.046761 -6.462646 -0.105186 18.016410 3.171768 1.656967 12.025045 1.853274 -0.117747 0.000000 0.000000 0.000000 -1.056445 6.582510 -4.165816 -0.033087 -0.388665 -0.718886 15.141274 -2.393651 3.194771 -0.475061 -3.094958 1.969288 0.000000 0.000000 0.000000 -6.136145 -2.737482 0.861969 -0.644592 -0.466520 1.100628 0.000000 0.000000 0.000000 -4.045020 -2.985892 0.992560 1.058108 -1.229797 -7.239019 -5.533406 -16.358631 -70.421900 10.932910 -23.936284 -6.561771 0.000000 0.000000 0.000000 -5.300794 -2.492526 1.113603 2.766368 2.440339 6.372996 1.957014 6.786044 72.268545 8.598252 18.701413 4.588705 0.000000 0.000000 0.000000 
6.293942 87.999710 41.076313 0.000000 0.000000 0.000000 0.740458 5.220762 -4.521472 7.572590 10.131867 14.524561 24.292474 -3.677044 2.268464 -17.943450 5.440335 -9.146124 0.000000 0.000000 0.000000 -1.504282 6.899759 -4.680362 -37.878815 -5.981849 1.930793 19.251771 3.457652 1.604430 12.942030 1.709780 -2.290042 0.000000 0.000000 0.000000 -0.927805 6.688994 -4.650386 -0.296075 -0.526876 -0.515726 15.481747 -2.165198 4.079194 -0.483758 -3.066572 1.725169 0.000000 0.000000 0.000000 -6.518090 -2.621737 0.592077 -0.573888 -0.447616 1.122841 0.000000 0.000000 0.000000 -4.238592 -2.925828 0.697132 1.068695 -0.898513 -7.208021 -5.211454 -15.622116 -70.402230 11.008508 -24.410422 -6.502025 0.000000 0.000000 0.000000 -5.644076 -2.398714 0.915565 2.753828 2.189358 6.967365 2.131464 7.594563 70.943283 8.424588 19.155580 4.832553 0.000000 0.000000 0.000000 
5.816673 88.137665 44.394997 0.000000 0.000000 0.000000 0.402361 4.939919 -5.269918 3.338130 11.579014 15.853369 29.607009 -0.447064 2.067588 -6.521304 5.759562 -10.089362 0.000000 0.000000 0.000000 -1.314724 6.618624 -5.488886 -36.936601 -6.647743 3.604848 21.979819 3.161234 1.819259 11.173446 1.022496 -4.973649 0.000000 0.000000 0.000000 -0.695136 6.477875 -5.284706 -0.616732 -0.622268 -0.402376 15.770285 -1.903038 5.078600 -0.567751 -3.042367 1.490198 0.000000 0.000000 0.000000 -6.883625 -2.503946 0.334920 -0.472398 -0.401692 1.128361 0.000000 0.000000 0.000000 -4.483772 -2.868150 0.399236 1.130646 -0.512090 -7.130611 -4.827597 -14.620493 -70.381309 10.972184 -24.523765 -6.485762 0.000000 0.000000 0.000000 -5.936491 -2.315654 0.698496 2.698551 1.939624 7.514413 2.465784 8.713897 69.594737 8.315671 19.981901 5.009775 0.000000 0.000000 0.000000 
5.358420 88.156990 47.703411 0.000000 0.000000 0.000000 -0.126256 4.550510 -5.987144 -2.914423 11.362906 17.176579 37.518219 2.530895 1.953797 7.572702 6.191417 -10.194046 0.000000 0.000000 0.000000 -1.287654 6.088132 -6.312363 -35.836838 -7.636419 5.082448 25.158358 2.927365 2.005065 8.272215 0.568772 -7.332811 0.000000 0.000000 0.000000 -0.588951 5.933521 -5.748623 -0.934487 -0.590124 -0.414518 16.105255 -1.594119 5.923574 -0.683319 -2.983601 1.282693 0.000000 0.000000 0.000000 -7.214622 -2.362543 0.112312 -0.335737 -0.333226 1.123938 0.000000 0.000000 0.000000 -4.758349 -2.786847 0.112435 1.231443 -0.115810 -7.032917 -4.606264 -13.443164 -70.443839 10.817281 -24.253951 -6.528194 0.000000 0.000000 0.000000 -6.154546 -2.204314 0.476388 2.598452 1.664652 7.842715 2.627326 10.286037 68.669294 8.265341 20.776998 5.080789 0.000000 0.000000 0.000000 
